<?xml version="1.0" encoding="UTF-8" standalone="no"?>
<!DOCTYPE svg PUBLIC "-//W3C//DTD SVG 1.1//EN" "http://www.w3.org/Graphics/SVG/1.1/DTD/svg11.dtd">
<svg width="100%" height="100%" viewBox="0 0 1428 330" version="1.1" xmlns="http://www.w3.org/2000/svg" xmlns:xlink="http://www.w3.org/1999/xlink" xml:space="preserve" xmlns:serif="http://www.serif.com/" style="fill-rule:evenodd;clip-rule:evenodd;stroke-linejoin:round;stroke-miterlimit:2;">
    <g transform="matrix(1,0,0,1,-253.88,-351.668)">
        <g transform="matrix(1,0,0,1,-263.032,144.877)">
            <path d="M760.362,418.292C760.362,439.592 754.896,459.242 743.965,477.242C733.038,495.242 718.141,509.642 699.274,520.442C680.407,531.242 660.194,536.642 638.637,536.642C616.779,536.642 596.491,531.167 577.774,520.217C559.057,509.267 544.31,494.342 533.533,475.442C522.452,457.142 516.912,436.892 516.912,414.692C516.912,392.792 522.387,372.467 533.337,353.717C544.287,334.967 559.212,320.042 578.112,308.942C596.712,298.142 616.962,292.742 638.862,292.742C664.662,292.742 688.362,300.392 709.962,315.692L709.962,233.792L760.362,206.792L760.362,418.292ZM709.962,414.692C709.962,402.092 706.737,390.317 700.287,379.367C693.837,368.417 685.212,359.642 674.412,353.042C663.612,346.742 651.762,343.592 638.862,343.592C626.262,343.592 614.487,346.817 603.537,353.267C592.587,359.717 583.962,368.342 577.662,379.142C571.062,389.642 567.762,401.492 567.762,414.692C567.762,427.292 570.987,439.067 577.437,450.017C583.887,460.967 592.512,469.592 603.312,475.892C613.812,482.492 625.662,485.792 638.862,485.792C651.462,485.792 663.237,482.567 674.187,476.117C685.137,469.667 693.912,461.042 700.512,450.242C706.812,439.442 709.962,427.592 709.962,414.692Z" style="fill:rgb(240,240,240);fill-rule:nonzero;"/>
            <path d="M782.412,371.042C791.412,347.642 806.412,328.742 827.412,314.342C848.412,299.942 871.512,292.742 896.712,292.742C913.812,292.742 931.512,296.867 949.812,305.117C968.112,313.367 983.712,326.942 996.612,345.842C1010.71,367.142 1017.76,390.092 1017.76,414.692C1017.76,421.292 1017.31,427.742 1016.41,434.042L1015.51,433.592L1015.51,434.042L829.212,438.992C832.812,448.892 838.212,457.517 845.412,464.867C852.612,472.217 861.012,477.692 870.612,481.292C878.412,484.292 886.812,485.792 895.812,485.792C906.012,485.792 915.837,483.767 925.287,479.717C934.737,475.667 942.762,469.892 949.362,462.392L998.412,481.292C987.312,498.392 972.612,511.892 954.312,521.792C936.012,531.692 916.512,536.642 895.812,536.642C878.412,536.642 860.637,532.517 842.487,524.267C824.337,516.017 808.812,502.292 795.912,483.092C781.512,461.792 774.312,438.842 774.312,414.242C774.312,399.842 777.012,385.442 782.412,371.042ZM828.762,392.192L962.412,389.042C959.112,379.742 953.937,371.567 946.887,364.517C939.837,357.467 931.512,352.142 921.912,348.542C914.112,345.542 905.712,344.042 896.712,344.042C882.012,344.042 868.512,348.092 856.212,356.192C843.912,364.292 835.062,375.392 829.662,389.492L828.762,392.192Z" style="fill:rgb(240,240,240);fill-rule:nonzero;"/>
            <path d="M1031.26,400.292C1031.26,366.692 1039.21,340.442 1055.11,321.542C1071.01,302.642 1093.21,293.192 1121.71,293.192C1134.31,293.192 1146.91,295.817 1159.51,301.067C1172.11,306.317 1183.51,313.742 1193.71,323.342C1202.41,313.742 1212.69,306.317 1224.54,301.067C1236.39,295.817 1248.91,293.192 1262.11,293.192C1275.01,293.192 1288.59,296.942 1302.84,304.442C1317.09,311.942 1328.86,321.992 1338.16,334.592C1347.76,347.792 1352.56,362.642 1352.56,379.142L1352.56,536.192L1293.61,536.192L1293.61,380.942C1293.61,371.042 1289.56,362.792 1281.46,356.192C1273.36,349.592 1264.06,346.292 1253.56,346.292C1240.36,346.292 1228.96,351.992 1219.36,363.392C1223.26,375.392 1225.21,387.692 1225.21,400.292L1225.21,536.642L1174.36,536.642L1174.36,400.292C1174.36,388.892 1171.74,378.842 1166.49,370.142C1161.24,361.442 1154.26,354.842 1145.56,350.342C1136.56,346.142 1128.61,344.042 1121.71,344.042C1107.31,344.042 1097.04,348.392 1090.89,357.092C1084.74,365.792 1081.66,380.192 1081.66,400.292L1081.66,536.642L1031.26,536.642L1031.26,400.292Z" style="fill:rgb(240,240,240);fill-rule:nonzero;"/>
            <path d="M1366.06,400.292C1366.06,366.692 1374.01,340.442 1389.91,321.542C1405.81,302.642 1428.01,293.192 1456.51,293.192C1469.11,293.192 1481.71,295.817 1494.31,301.067C1506.91,306.317 1518.31,313.742 1528.51,323.342C1537.21,313.742 1547.49,306.317 1559.34,301.067C1571.19,295.817 1583.71,293.192 1596.91,293.192C1609.81,293.192 1623.39,296.942 1637.64,304.442C1651.89,311.942 1663.66,321.992 1672.96,334.592C1682.56,347.792 1687.36,362.642 1687.36,379.142L1687.36,536.192L1628.41,536.192L1628.41,380.942C1628.41,371.042 1624.36,362.792 1616.26,356.192C1608.16,349.592 1598.86,346.292 1588.36,346.292C1575.16,346.292 1563.76,351.992 1554.16,363.392C1558.06,375.392 1560.01,387.692 1560.01,400.292L1560.01,536.642L1509.16,536.642L1509.16,400.292C1509.16,388.892 1506.54,378.842 1501.29,370.142C1496.04,361.442 1489.06,354.842 1480.36,350.342C1471.36,346.142 1463.41,344.042 1456.51,344.042C1442.11,344.042 1431.84,348.392 1425.69,357.092C1419.54,365.792 1416.46,380.192 1416.46,400.292L1416.46,536.642L1366.06,536.642L1366.06,400.292Z" style="fill:rgb(240,240,240);fill-rule:nonzero;"/>
            <path d="M1822.81,536.642C1800.91,536.642 1780.59,531.167 1761.84,520.217C1743.09,509.267 1728.31,494.342 1717.51,475.442C1706.41,457.142 1700.86,436.892 1700.86,414.692C1700.86,392.792 1706.34,372.467 1717.29,353.717C1728.24,334.967 1743.16,320.042 1762.06,308.942C1780.66,298.142 1800.91,292.742 1822.81,292.742C1844.41,292.742 1864.66,298.217 1883.56,309.167C1902.46,320.117 1917.46,334.892 1928.56,353.492C1939.36,372.392 1944.76,392.792 1944.76,414.692C1944.76,436.592 1939.29,456.917 1928.34,475.667C1917.39,494.417 1902.61,509.192 1884.01,519.992C1865.41,531.092 1845.01,536.642 1822.81,536.642ZM1822.81,482.192C1835.11,482.192 1846.44,479.192 1856.79,473.192C1867.14,467.192 1875.31,458.942 1881.31,448.442C1887.31,437.942 1890.31,426.692 1890.31,414.692C1890.31,402.392 1887.39,391.067 1881.54,380.717C1875.69,370.367 1867.51,362.192 1857.01,356.192C1846.51,350.192 1835.11,347.192 1822.81,347.192C1810.51,347.192 1799.19,350.117 1788.84,355.967C1778.49,361.817 1770.31,369.992 1764.31,380.492C1758.31,390.992 1755.31,402.392 1755.31,414.692C1755.31,426.992 1758.31,438.317 1764.31,448.667C1770.31,459.017 1778.56,467.192 1789.06,473.192C1799.56,479.192 1810.81,482.192 1822.81,482.192Z" style="fill:rgb(240,240,240);fill-rule:nonzero;"/>
        </g>
    </g>
</svg>
