<?xml version="1.0" encoding="UTF-8"?>
<svg id="Layer_2" data-name="Layer 2" xmlns="http://www.w3.org/2000/svg" viewBox="0 0 636.69 136.57">
  <defs>
    <style>
      .cls-1 {
        fill: #fff;
      }
    </style>
  </defs>
  <g id="Layer_1-2" data-name="Layer 1">
    <g>
      <path class="cls-1" d="M44.93,136.57c-9.27,0-17.27-2.23-23.98-6.68-6.72-4.46-11.89-10.67-15.51-18.64-3.63-7.96-5.44-17.05-5.44-27.28s1.81-19.49,5.44-27.45c3.62-7.97,8.79-14.21,15.51-18.72,6.71-4.51,14.71-6.78,23.98-6.78,7.13,0,13.23,1.4,18.28,4.19s9.06,6.75,12.04,11.85v73.64c-2.85,4.88-6.75,8.73-11.68,11.59-4.93,2.86-11.14,4.28-18.63,4.28ZM48.5,116.43c6.06,0,11.05-1.42,14.97-4.28,3.92-2.85,6.86-6.74,8.83-11.67,1.96-4.93,2.94-10.43,2.94-16.5s-.98-11.73-2.94-16.67c-1.97-4.93-4.9-8.85-8.83-11.77-3.92-2.91-8.92-4.37-14.97-4.37-5.35,0-9.96,1.4-13.82,4.19-3.87,2.79-6.78,6.68-8.73,11.68-1.97,4.99-2.95,10.64-2.95,16.93s.98,11.74,2.95,16.67c1.96,4.93,4.87,8.8,8.73,11.59,3.86,2.79,8.47,4.19,13.82,4.19ZM75.24,133.72V0h22.47v133.72h-22.47Z"/>
      <path class="cls-1" d="M134.44,91.29v-18.36h58.66l-8.02,5.17c.47-4.51-.09-8.82-1.69-12.92-1.6-4.11-4.19-7.46-7.76-10.08-3.57-2.61-8.21-3.92-13.91-3.92-7.73,0-14.21,2.44-19.44,7.31s-7.84,11.88-7.84,21.04h-23.72c.71-10.35,3.42-19.11,8.11-26.3,4.69-7.19,10.76-12.69,18.19-16.49,7.43-3.81,15.66-5.71,24.7-5.71,6.78,0,13.16,1.34,19.17,4.01,6,2.68,11.17,6.59,15.51,11.77,4.34,5.17,7.55,11.5,9.63,18.99,2.07,7.49,2.47,15.98,1.16,25.49h-72.75ZM161.72,136.57c-9.4,0-17.72-1.9-24.96-5.7s-13.07-9.1-17.47-15.87c-4.4-6.78-7.13-14.68-8.21-23.72h23.36c.95,7.37,3.62,13.4,8.02,18.09,4.39,4.7,10.81,7.04,19.25,7.04,5.94,0,10.72-1.39,14.35-4.19s6.21-6.21,7.76-10.26h23.53c-1.42,6.9-4.22,12.93-8.38,18.1-4.16,5.17-9.39,9.21-15.69,12.12-6.3,2.91-13.49,4.37-21.57,4.37Z"/>
      <path class="cls-1" d="M221.44,33.87h22.47v99.85h-22.47V33.87ZM243.91,84.51l-2.86-20.15c0-3.09.51-6.54,1.52-10.34,1.01-3.81,2.71-7.46,5.09-10.97,2.37-3.5,5.62-6.38,9.71-8.65,4.1-2.26,9.3-3.39,15.61-3.39s11.4,1.31,16.04,3.92,8.23,6.93,10.79,12.93,3.84,14.11,3.84,24.33v61.51h-22.29v-59.19c0-4.64-.3-8.76-.89-12.39s-1.91-6.48-3.92-8.56c-2.02-2.07-5.23-3.12-9.63-3.12-3.57,0-7.1,1.19-10.61,3.57-3.51,2.37-6.45,6.06-8.83,11.05s-3.56,11.48-3.56,19.44ZM303.64,84.51l-5.71-20.15c0-3.09.62-6.54,1.87-10.34,1.25-3.81,3.27-7.46,6.07-10.97,2.79-3.5,6.38-6.38,10.79-8.65,4.4-2.26,9.8-3.39,16.22-3.39,6.07,0,11.38,1.31,15.96,3.92,4.57,2.61,8.17,6.93,10.78,12.93,2.62,6,3.92,14.11,3.92,24.33v61.51h-22.46v-59.19c0-4.64-.3-8.76-.89-12.39-.59-3.63-1.87-6.48-3.84-8.56-1.96-2.07-5.14-3.12-9.54-3.12-3.56,0-7.13,1.19-10.69,3.57-3.57,2.37-6.54,6.06-8.92,11.05s-3.56,11.48-3.56,19.44Z"/>
      <path class="cls-1" d="M379.95,33.87h22.47v99.85h-22.47V33.87ZM402.42,84.51l-2.86-20.15c0-3.09.51-6.54,1.52-10.34,1.01-3.81,2.71-7.46,5.09-10.97,2.37-3.5,5.62-6.38,9.71-8.65,4.1-2.26,9.3-3.39,15.61-3.39s11.4,1.31,16.04,3.92,8.23,6.93,10.79,12.93,3.84,14.11,3.84,24.33v61.51h-22.29v-59.19c0-4.64-.3-8.76-.89-12.39s-1.91-6.48-3.92-8.56c-2.02-2.07-5.23-3.12-9.63-3.12-3.57,0-7.1,1.19-10.61,3.57-3.51,2.37-6.45,6.06-8.83,11.05s-3.56,11.48-3.56,19.44ZM462.15,84.51l-5.71-20.15c0-3.09.62-6.54,1.87-10.34,1.25-3.81,3.27-7.46,6.07-10.97,2.79-3.5,6.38-6.38,10.79-8.65,4.4-2.26,9.8-3.39,16.22-3.39,6.07,0,11.38,1.31,15.96,3.92,4.57,2.61,8.17,6.93,10.78,12.93,2.62,6,3.92,14.11,3.92,24.33v61.51h-22.46v-59.19c0-4.64-.3-8.76-.89-12.39-.59-3.63-1.87-6.48-3.84-8.56-1.96-2.07-5.14-3.12-9.54-3.12-3.56,0-7.13,1.19-10.69,3.57-3.57,2.37-6.54,6.06-8.92,11.05s-3.56,11.48-3.56,19.44Z"/>
      <path class="cls-1" d="M585.7,136.57c-10.23,0-19.17-2.23-26.84-6.68-7.67-4.46-13.61-10.67-17.83-18.64-4.22-7.96-6.33-17.05-6.33-27.28s2.11-19.49,6.33-27.45c4.22-7.97,10.16-14.21,17.83-18.72,7.67-4.51,16.61-6.78,26.84-6.78s19.31,2.26,26.92,6.78c7.6,4.52,13.52,10.76,17.74,18.72,4.22,7.96,6.33,17.11,6.33,27.45s-2.11,19.32-6.33,27.28c-4.22,7.97-10.14,14.18-17.74,18.64-7.61,4.45-16.58,6.68-26.92,6.68ZM585.88,116.43c6.07,0,11.17-1.39,15.34-4.19,4.16-2.79,7.31-6.66,9.45-11.59,2.14-4.93,3.21-10.49,3.21-16.67s-1.07-11.94-3.21-16.93c-2.14-5-5.29-8.89-9.45-11.68-4.16-2.79-9.27-4.19-15.34-4.19s-11.35,1.4-15.51,4.19c-4.16,2.79-7.31,6.68-9.45,11.68-2.14,4.99-3.21,10.64-3.21,16.93s1.07,11.74,3.21,16.67c2.14,4.93,5.28,8.8,9.45,11.59,4.16,2.79,9.33,4.19,15.51,4.19Z"/>
    </g>
  </g>
</svg>